<mxfile host="app.diagrams.net" modified="2021-04-13T08:11:41.352Z" agent="5.0 (Macintosh; Intel Mac OS X 11_2_3) AppleWebKit/537.36 (KHTML, like Gecko) Chrome/89.0.4389.114 Safari/537.36" etag="fLYVZQTbnCTZ0aQmOS2O" version="14.5.10" type="github">
  <diagram id="ApX5JLMxndfBTvwCuYk7" name="Page-1">
    <mxGraphModel dx="1426" dy="769" grid="1" gridSize="10" guides="1" tooltips="1" connect="1" arrows="1" fold="1" page="1" pageScale="1" pageWidth="1169" pageHeight="827" math="0" shadow="0">
      <root>
        <mxCell id="0" />
        <mxCell id="1" parent="0" />
        <mxCell id="OZZ-bTDTIZ-gRP_8dZ8z-6" value="" style="ellipse;whiteSpace=wrap;html=1;fillColor=#dae8fc;strokeColor=#6c8ebf;" vertex="1" parent="1">
          <mxGeometry x="260" y="200" width="120" height="80" as="geometry" />
        </mxCell>
        <mxCell id="OZZ-bTDTIZ-gRP_8dZ8z-7" value="AirMonitoringStation" style="text;html=1;strokeColor=none;fillColor=none;align=center;verticalAlign=middle;whiteSpace=wrap;rounded=0;" vertex="1" parent="1">
          <mxGeometry x="300" y="230" width="40" height="20" as="geometry" />
        </mxCell>
        <mxCell id="OZZ-bTDTIZ-gRP_8dZ8z-8" value="City" style="ellipse;whiteSpace=wrap;html=1;fillColor=#dae8fc;strokeColor=#6c8ebf;" vertex="1" parent="1">
          <mxGeometry x="560" y="70" width="120" height="80" as="geometry" />
        </mxCell>
        <mxCell id="OZZ-bTDTIZ-gRP_8dZ8z-9" value="DataProvider" style="ellipse;whiteSpace=wrap;html=1;fillColor=#dae8fc;strokeColor=#6c8ebf;" vertex="1" parent="1">
          <mxGeometry x="540" y="240" width="120" height="80" as="geometry" />
        </mxCell>
        <mxCell id="OZZ-bTDTIZ-gRP_8dZ8z-11" value="" style="endArrow=none;html=1;entryX=0;entryY=0.5;entryDx=0;entryDy=0;exitX=0.792;exitY=0.088;exitDx=0;exitDy=0;exitPerimeter=0;startArrow=blockThin;startFill=1;endFill=0;" edge="1" parent="1" source="OZZ-bTDTIZ-gRP_8dZ8z-6" target="OZZ-bTDTIZ-gRP_8dZ8z-8">
          <mxGeometry width="50" height="50" relative="1" as="geometry">
            <mxPoint x="360" y="200" as="sourcePoint" />
            <mxPoint x="400" y="160" as="targetPoint" />
            <Array as="points">
              <mxPoint x="400" y="140" />
            </Array>
          </mxGeometry>
        </mxCell>
        <mxCell id="OZZ-bTDTIZ-gRP_8dZ8z-12" value="" style="endArrow=classic;html=1;exitX=1;exitY=0;exitDx=0;exitDy=0;entryX=0.033;entryY=0.7;entryDx=0;entryDy=0;entryPerimeter=0;" edge="1" parent="1" source="OZZ-bTDTIZ-gRP_8dZ8z-6" target="OZZ-bTDTIZ-gRP_8dZ8z-8">
          <mxGeometry width="50" height="50" relative="1" as="geometry">
            <mxPoint x="430" y="240" as="sourcePoint" />
            <mxPoint x="480" y="190" as="targetPoint" />
            <Array as="points">
              <mxPoint x="450" y="200" />
            </Array>
          </mxGeometry>
        </mxCell>
        <mxCell id="OZZ-bTDTIZ-gRP_8dZ8z-13" value="" style="endArrow=classic;html=1;entryX=0.1;entryY=0.775;entryDx=0;entryDy=0;entryPerimeter=0;" edge="1" parent="1" source="OZZ-bTDTIZ-gRP_8dZ8z-6" target="OZZ-bTDTIZ-gRP_8dZ8z-9">
          <mxGeometry width="50" height="50" relative="1" as="geometry">
            <mxPoint x="299.9964068711927" y="385.7157287525383" as="sourcePoint" />
            <mxPoint x="436.53" y="320" as="targetPoint" />
            <Array as="points">
              <mxPoint x="430" y="330" />
            </Array>
          </mxGeometry>
        </mxCell>
        <mxCell id="OZZ-bTDTIZ-gRP_8dZ8z-16" value="" style="endArrow=none;html=1;entryX=0;entryY=0;entryDx=0;entryDy=0;startArrow=blockThin;startFill=1;endFill=0;" edge="1" parent="1" source="OZZ-bTDTIZ-gRP_8dZ8z-6" target="OZZ-bTDTIZ-gRP_8dZ8z-9">
          <mxGeometry width="50" height="50" relative="1" as="geometry">
            <mxPoint x="460" y="280" as="sourcePoint" />
            <mxPoint x="664.96" y="182.95999999999998" as="targetPoint" />
            <Array as="points">
              <mxPoint x="480" y="220" />
            </Array>
          </mxGeometry>
        </mxCell>
        <mxCell id="OZZ-bTDTIZ-gRP_8dZ8z-17" value="AirPollution" style="ellipse;whiteSpace=wrap;html=1;fillColor=#dae8fc;strokeColor=#6c8ebf;" vertex="1" parent="1">
          <mxGeometry x="90" y="10" width="120" height="80" as="geometry" />
        </mxCell>
        <mxCell id="OZZ-bTDTIZ-gRP_8dZ8z-19" value="" style="endArrow=classic;html=1;exitX=0.5;exitY=1;exitDx=0;exitDy=0;" edge="1" parent="1" source="OZZ-bTDTIZ-gRP_8dZ8z-17" target="OZZ-bTDTIZ-gRP_8dZ8z-6">
          <mxGeometry width="50" height="50" relative="1" as="geometry">
            <mxPoint x="39.99640687119273" y="279.9957287525383" as="sourcePoint" />
            <mxPoint x="241.53000000000003" y="194.27999999999997" as="targetPoint" />
            <Array as="points">
              <mxPoint x="180" y="150" />
            </Array>
          </mxGeometry>
        </mxCell>
        <mxCell id="OZZ-bTDTIZ-gRP_8dZ8z-20" value="AirPollutionHistory" style="ellipse;whiteSpace=wrap;html=1;fillColor=#dae8fc;strokeColor=#6c8ebf;" vertex="1" parent="1">
          <mxGeometry x="480" y="380" width="120" height="80" as="geometry" />
        </mxCell>
        <mxCell id="OZZ-bTDTIZ-gRP_8dZ8z-21" value="" style="endArrow=classic;html=1;entryX=0;entryY=0.5;entryDx=0;entryDy=0;exitX=0.5;exitY=1;exitDx=0;exitDy=0;" edge="1" parent="1" source="OZZ-bTDTIZ-gRP_8dZ8z-6" target="OZZ-bTDTIZ-gRP_8dZ8z-20">
          <mxGeometry width="50" height="50" relative="1" as="geometry">
            <mxPoint x="280.00037706973023" y="341.0093994206884" as="sourcePoint" />
            <mxPoint x="474.1" y="372" as="targetPoint" />
            <Array as="points">
              <mxPoint x="352.1" y="400" />
            </Array>
          </mxGeometry>
        </mxCell>
        <mxCell id="OZZ-bTDTIZ-gRP_8dZ8z-23" value="User" style="ellipse;whiteSpace=wrap;html=1;fillColor=#d5e8d4;strokeColor=#82b366;" vertex="1" parent="1">
          <mxGeometry x="20" y="420" width="120" height="80" as="geometry" />
        </mxCell>
        <mxCell id="OZZ-bTDTIZ-gRP_8dZ8z-24" value="" style="endArrow=classic;html=1;entryX=0.408;entryY=0.988;entryDx=0;entryDy=0;entryPerimeter=0;exitX=1;exitY=0.5;exitDx=0;exitDy=0;" edge="1" parent="1" source="OZZ-bTDTIZ-gRP_8dZ8z-23" target="OZZ-bTDTIZ-gRP_8dZ8z-6">
          <mxGeometry width="50" height="50" relative="1" as="geometry">
            <mxPoint x="160.00037706973023" y="459.9993994206884" as="sourcePoint" />
            <mxPoint x="354.1" y="490.99" as="targetPoint" />
            <Array as="points">
              <mxPoint x="250" y="400" />
            </Array>
          </mxGeometry>
        </mxCell>
      </root>
    </mxGraphModel>
  </diagram>
</mxfile>
